<svg width="48" height="48" viewBox="0 0 48 48" fill="none" xmlns="http://www.w3.org/2000/svg">
<rect width="48" height="48" rx="4" fill="white"/>
<path d="M32.75 18.8106C32.1059 19.0839 31.4148 19.2692 30.6887 19.352C31.4301 18.9268 31.9976 18.2525 32.2666 17.4515C31.5711 17.8452 30.8035 18.1311 29.9855 18.286C29.3305 17.6169 28.3988 17.2002 27.3653 17.2002C25.3827 17.2002 23.7752 18.7394 23.7752 20.6367C23.7752 20.9058 23.8069 21.1686 23.8682 21.42C20.885 21.2765 18.2397 19.908 16.4693 17.8284C16.1598 18.3352 15.9837 18.9258 15.9837 19.5561C15.9837 20.7488 16.618 21.8011 17.5803 22.4168C16.992 22.3979 16.4387 22.243 15.9542 21.9854V22.0283C15.9542 23.6932 17.1921 25.0826 18.8335 25.3989C18.5328 25.4764 18.2157 25.5193 17.8876 25.5193C17.6558 25.5193 17.4316 25.4973 17.2118 25.4554C17.6689 26.8219 18.9943 27.8156 20.5646 27.8428C19.3366 28.7642 17.7881 29.3119 16.1062 29.3119C15.8165 29.3119 15.531 29.2951 15.25 29.2647C16.8389 30.2417 18.7253 30.8113 20.7527 30.8113C27.3566 30.8113 30.9665 25.5738 30.9665 21.0315L30.9544 20.5865C31.6597 20.1048 32.2699 19.4996 32.75 18.8106Z" fill="#086CF9"/>
</svg>
