<svg width="48" height="48" viewBox="0 0 48 48" fill="none" xmlns="http://www.w3.org/2000/svg">
<rect width="48" height="48" rx="4" fill="white"/>
<path d="M28.6359 14.8373L26.3215 14.8335C23.7213 14.8335 22.041 16.6044 22.041 19.3454V21.4256H19.714C19.5129 21.4256 19.3501 21.5931 19.3501 21.7996V24.8137C19.3501 25.0203 19.5131 25.1875 19.714 25.1875H22.041V32.793C22.041 32.9996 22.2039 33.1668 22.4049 33.1668H25.441C25.6421 33.1668 25.8049 32.9994 25.8049 32.793V25.1875H28.5258C28.7268 25.1875 28.8897 25.0203 28.8897 24.8137L28.8908 21.7996C28.8908 21.7005 28.8524 21.6055 28.7842 21.5353C28.7161 21.4651 28.6232 21.4256 28.5267 21.4256H25.8049V19.6622C25.8049 18.8146 26.0016 18.3843 27.0764 18.3843L28.6355 18.3837C28.8364 18.3837 28.9992 18.2162 28.9992 18.0099V15.2111C28.9992 15.005 28.8366 14.8377 28.6359 14.8373Z" fill="#086CF9"/>
</svg>
